<svg width="513" height="117" viewBox="0 0 513 117" fill="none" xmlns="http://www.w3.org/2000/svg">
<path d="M121.561 61.07C123.213 61.07 124.869 61.1494 126.513 61.0473C128.408 60.9301 129.651 59.8715 129.67 57.9282C129.689 55.9471 128.358 54.8583 126.51 54.7978C123.133 54.6843 119.75 54.7221 116.374 54.8507C114.521 54.9225 113.247 55.9358 113.209 57.9509C113.171 59.8072 114.476 60.9944 116.608 61.07C118.256 61.1267 119.909 61.0813 121.561 61.0813V61.0624V61.07Z" fill="#9C7EF8"/>
<path d="M87.2014 12.9679C87.3451 14.2533 87.7496 15.3459 89.1863 15.8299C90.536 16.2836 91.8479 16.1701 92.5776 14.9905C94.6003 11.7164 96.5436 8.37806 98.3092 4.96029C98.9519 3.71265 98.5133 2.31379 97.1939 1.45934C95.9235 0.635144 94.4755 0.491477 93.5492 1.70887C91.0729 4.96407 89.0993 8.5482 87.3148 12.2306C87.2165 12.431 87.243 12.6919 87.2052 12.9716L87.2014 12.9679Z" fill="#2EC111"/>
<path d="M106.192 83.7997C106.169 85.4405 107.145 86.2647 108.245 86.9112C110.959 88.5105 113.689 90.0833 116.457 91.5766C118.457 92.6579 120.026 92.2534 120.903 90.6012C121.776 88.9566 121.262 87.2515 119.493 86.2005C116.718 84.5521 113.958 82.8734 111.107 81.3611C108.661 80.0643 106.131 81.4821 106.192 83.7959V83.7997Z" fill="#F65D19"/>
<path d="M109.512 35.1267C109.95 34.949 110.634 34.7562 111.239 34.4159C113.98 32.881 116.725 31.346 119.417 29.7278C121.326 28.5785 121.901 26.6617 120.805 25.1494C119.572 23.4518 117.965 23.3876 116.23 24.3895C113.372 26.0416 110.495 27.6598 107.667 29.3573C106.283 30.1891 105.848 31.4859 106.366 33.0246C106.824 34.3781 107.905 34.9377 109.515 35.1267H109.512Z" fill="#FFF200"/>
<path d="M87.2129 102.873C87.2129 103.694 87.5645 104.401 87.9539 105.085C89.4322 107.683 90.8915 110.291 92.4303 112.855C93.6779 114.934 95.2696 115.493 96.8991 114.563C98.6118 113.588 99.0352 111.924 97.9161 109.875C96.3698 107.047 94.7252 104.276 93.0919 101.497C92.2866 100.132 91.0012 99.52 89.4964 99.9245C88.1089 100.299 87.2356 101.316 87.2167 102.87L87.2129 102.873Z" fill="#2F77FF"/>
<path d="M100.052 57.796C98.105 58.0077 96.158 58.3404 94.2033 58.4084C83.7156 58.7789 73.5455 60.4916 63.9651 65.0512C58.7288 67.5427 55.7269 71.8338 53.3451 76.9C50.4301 83.1003 48.1428 94.5332 46.5473 102.068C44.3205 112.586 44.3507 103.255 44.2411 101.909C41.8101 72.0531 23.7458 66.4084 7.035 72.2761C5.33745 72.8735 3.61723 73.4066 0.588867 74.4047C5.99152 64.8394 12.604 59.52 22.2033 58.3744C23.9424 58.1665 25.7307 58.2232 27.4849 58.3479C31.5681 58.6353 34.2978 60.658 33.5152 52.7184C33.3829 45.0511 33.0161 37.3876 32.759 29.7241C32.725 28.692 32.7553 27.6598 33.6097 26.3517C35.2959 30.3782 36.9519 34.4197 38.6796 38.4311C39.8819 41.225 41.0502 44.0492 42.4717 46.7298C47.0502 55.3536 52.6116 57.951 62.2562 56.3895C73.674 54.5445 85.1296 53.4595 96.6343 55.7544C97.795 55.985 98.9179 56.4122 100.06 56.7525C100.06 57.1003 100.052 57.4519 100.052 57.7997V57.796Z" fill="white"/>
<path d="M66.88 41.3536C66.8649 46.3933 62.4642 50.6882 57.2808 50.726C52.6381 50.7562 48.2222 46.2647 48.1466 41.433C48.0596 35.9471 52.3658 31.5464 57.7496 31.6144C62.8876 31.6787 66.8952 35.9547 66.8838 41.3536H66.88Z" fill="white"/>
<path d="M184.771 1.49805V8.20804H165.101C161.631 8.20804 160.101 10.088 160.101 12.758C160.101 15.088 161.291 17.308 165.791 17.308H174.771C185.231 17.308 187.681 23.108 187.681 28.618C187.681 35.098 184.211 39.8781 175.461 39.8781H154.071V33.168H175.671C179.311 33.168 180.961 31.178 180.961 28.388C180.961 25.888 179.651 23.608 174.931 23.608H166.001C155.771 23.608 153.381 17.868 153.381 12.518C153.381 6.14804 156.791 1.48804 165.321 1.48804H184.761L184.771 1.49805Z" fill="white"/>
<path d="M214.681 1.49805C223.321 1.49805 227.021 6.83804 227.021 12.988C227.021 18.788 223.671 25.038 214.681 25.038H202.741C202.121 25.038 201.771 25.318 201.771 26.008V39.8781H195.061V24.698C195.061 20.378 196.881 18.618 201.091 18.618H214.911C218.721 18.618 220.251 15.998 220.251 13.328C220.251 10.658 218.601 8.20804 214.961 8.20804H195.001V1.49805H214.671H214.681Z" fill="white"/>
<path d="M254.881 1.49805C266.021 1.49805 272.221 7.86804 272.221 20.768C272.221 33.668 266.081 39.868 254.881 39.868H249.651C238.451 39.868 232.311 33.618 232.311 20.768C232.311 7.91804 238.511 1.49805 249.651 1.49805H254.881ZM249.651 8.20804C242.261 8.20804 239.021 11.958 239.021 20.768C239.021 29.578 242.201 33.1581 249.651 33.1581H254.881C262.271 33.1581 265.451 29.518 265.451 20.708C265.451 11.898 262.271 8.19803 254.881 8.19803H249.651V8.20804Z" fill="white"/>
<path d="M300.821 1.49805C309.461 1.49805 313.161 6.83804 313.161 12.988C313.161 17.768 310.891 22.878 305.031 24.528L313.961 39.8781H306.511L297.751 25.038H287.741C287.121 25.038 286.771 25.318 286.771 26.008V39.8781H280.061V24.698C280.061 20.378 281.881 18.618 286.091 18.618H301.041C304.851 18.618 306.381 15.998 306.381 13.278C306.381 10.558 304.731 8.21805 301.041 8.21805H280.001V1.50803H300.811L300.821 1.49805Z" fill="white"/>
<path d="M346.141 1.49805V8.20804H334.941V39.8781H328.171V8.20804H316.971V1.49805H346.141Z" fill="white"/>
<path d="M393.791 1.49805V8.20804H382.591V39.8781H375.821V8.20804H364.621V1.49805H393.791Z" fill="white"/>
<path d="M406.811 1.49805V39.8781H400.101V1.49805H406.811Z" fill="white"/>
<path d="M422.73 39.878H416.021V9.17801C416.021 4.17801 418.811 0.817993 424.551 0.817993C429.671 0.817993 432.111 3.54801 433.531 7.92801L442.85 32.428C443.25 33.398 443.99 34.018 445.01 34.018C446.15 34.018 447 33.168 447 31.858V9.17801C447 4.17801 449.79 0.817993 455.47 0.817993C460.59 0.817993 463.03 3.54801 464.57 7.92801L476.451 39.878H469.23L457.801 8.948C457.401 7.978 456.661 7.298 455.641 7.298C454.501 7.298 453.711 8.14801 453.711 9.51801V32.148C453.711 37.208 450.811 40.568 445.181 40.568C440.121 40.568 437.621 37.838 436.141 33.458L426.82 8.95801C426.42 7.98801 425.68 7.30801 424.72 7.30801C423.53 7.30801 422.73 8.15802 422.73 9.52802V39.888V39.878Z" fill="white"/>
<path d="M512.851 1.49805V8.20804H493.631C489.591 8.20804 487.831 10.088 487.831 13.038C487.831 16.168 489.821 17.588 493.691 17.588H512.571V23.668H493.521C489.651 23.668 487.661 25.208 487.661 28.328C487.661 31.448 489.541 33.1581 493.461 33.1581H512.901V39.868H493.461C484.361 39.868 480.671 35.3781 480.671 29.4081C480.671 25.0281 482.661 22.078 486.181 20.598C482.601 19.118 480.781 16.168 480.781 11.958C480.781 5.81804 484.591 1.49805 493.631 1.49805H512.851Z" fill="white"/>
<path d="M205.281 99.888C201.471 99.888 198.631 98.928 196.691 96.938C193.931 98.928 190.041 99.888 184.891 99.888H166.741C163.081 99.888 161.291 101.728 161.291 105.418V114.998L153.821 110.058V103.428C153.821 100.258 154.791 97.828 156.811 95.988C158.681 94.148 161.371 93.258 164.881 93.258H175.411C173.841 90.678 173.091 88.098 173.091 85.368C173.091 79.918 174.731 75.568 178.021 72.248C181.311 68.928 185.791 67.308 191.541 67.308C194.971 67.308 198.561 67.898 202.291 68.998L201.471 76.668V86.468C201.471 90.968 203.261 93.248 206.921 93.248H212.151V99.878H205.281V99.888ZM193.851 72.918C192.881 72.548 191.541 72.398 189.971 72.398C183.621 72.398 180.491 76.228 180.491 83.968C180.491 90.158 182.661 93.258 186.911 93.258C192.211 93.258 194.901 89.938 194.901 83.378V82.048C194.901 81.528 194.901 81.088 194.831 80.578C194.751 79.548 194.611 78.438 194.381 77.188L193.861 72.918H193.851Z" fill="white"/>
<path d="M218.641 111.758C218.641 112.788 218.191 113.818 217.301 114.778C216.331 115.738 215.281 116.178 214.011 116.178C212.891 116.178 211.771 115.738 210.801 114.928C209.831 114.118 209.381 113.088 209.381 111.688C209.381 110.438 209.831 109.408 210.801 108.588C211.701 107.708 212.741 107.258 213.941 107.258C215.141 107.258 216.261 107.698 217.231 108.508C218.131 109.388 218.571 110.498 218.571 111.748H218.651H218.641V111.758ZM232.611 89.1979C232.611 92.4379 231.641 95.0179 229.621 97.0079C227.681 98.9279 224.991 99.878 221.551 99.878H210.051V93.248H219.681C223.341 93.248 225.211 91.3279 225.211 87.4279V80.128L223.871 70.6979L232.531 68.778V89.1979H232.611ZM230.511 111.758C230.511 112.868 230.061 113.898 229.171 114.778C228.271 115.738 227.231 116.178 225.961 116.178C224.761 116.178 223.641 115.738 222.671 114.928C221.701 114.118 221.251 113.088 221.251 111.688C221.251 110.438 221.701 109.408 222.671 108.588C223.571 107.708 224.611 107.258 225.881 107.258C227.001 107.258 228.121 107.698 229.091 108.508C229.991 109.388 230.431 110.498 230.431 111.748H230.511V111.758Z" fill="white"/>
<path d="M253.511 99.888C250.071 99.888 247.391 98.928 245.441 97.018C243.421 95.028 242.451 92.378 242.451 88.908V63.848L241.181 54.418L249.921 52.428V87.218C249.921 91.268 251.711 93.258 255.301 93.258H259.331V99.888H253.511Z" fill="white"/>
<path d="M280.101 89.198C280.101 92.518 279.131 95.098 277.191 97.008C275.171 98.928 272.491 99.878 269.051 99.878H257.621V93.248H267.251C270.911 93.248 272.701 91.328 272.701 87.428V80.128L271.431 70.698L280.091 68.778V89.198H280.101ZM264.491 61.348C263.291 61.348 262.171 60.908 261.201 60.098C260.301 59.288 259.861 58.178 259.861 56.858C259.861 55.608 260.311 54.578 261.201 53.758C262.101 52.878 263.221 52.428 264.491 52.428C265.611 52.428 266.661 52.868 267.631 53.678C268.531 54.558 268.971 55.668 268.971 56.918C268.971 58.168 268.521 59.198 267.701 60.018C266.881 60.898 265.831 61.348 264.491 61.348ZM276.441 61.348C275.251 61.348 274.131 60.908 273.151 60.098C272.251 59.288 271.811 58.178 271.811 56.858C271.811 55.608 272.261 54.578 273.151 53.758C274.051 52.878 275.171 52.428 276.441 52.428C277.561 52.428 278.611 52.868 279.581 53.678C280.481 54.558 280.921 55.668 280.921 56.918C280.921 58.168 280.471 59.198 279.651 60.018C278.751 60.898 277.711 61.348 276.441 61.348Z" fill="white"/>
<path d="M361.57 89.128C361.57 92.518 360.601 95.1679 358.661 97.0179C356.721 98.9379 354.03 99.8879 350.59 99.8879H317.061C312.801 99.8879 309.371 98.4179 306.831 95.5379C304.291 92.5879 303.021 88.758 303.021 83.968C303.021 80.278 303.99 76.818 305.93 73.498H312.581C310.271 76.818 309.07 79.8379 309.07 82.4879C309.07 89.6379 312.061 93.248 317.961 93.248H348.73C352.39 93.248 354.26 91.3279 354.26 87.4279V80.128L352.84 70.6979L361.581 68.7079V89.128H361.57ZM326.62 73.4279C325.35 73.4279 324.231 72.9879 323.411 72.1779C322.511 71.3679 322.07 70.258 322.07 68.938C322.07 67.688 322.52 66.658 323.34 65.838C324.24 64.958 325.361 64.5079 326.631 64.5079C327.901 64.5079 328.941 64.9479 329.771 65.7579C330.671 66.6379 331.111 67.748 331.111 68.998C331.111 70.248 330.66 71.2779 329.84 72.0979C328.94 72.9779 327.901 73.4279 326.631 73.4279H326.62ZM338.57 73.4279C337.3 73.4279 336.181 72.9879 335.361 72.1779C334.461 71.3679 334.021 70.258 334.021 68.938C334.021 67.688 334.47 66.658 335.29 65.838C336.19 64.958 337.311 64.5079 338.581 64.5079C339.851 64.5079 340.891 64.9479 341.721 65.7579C342.621 66.6379 343.061 67.748 343.061 68.998C343.061 70.248 342.61 71.2779 341.79 72.0979C340.89 72.9779 339.851 73.4279 338.581 73.4279H338.57Z" fill="white"/>
<path d="M383.891 96.798C383.891 106.748 378.511 113.238 367.831 116.178L366.26 113.308C373.13 111.168 376.57 106.378 376.57 99.088L376.491 80.588L375.001 70.708L383.891 68.718V96.798Z" fill="white"/>
<path d="M417.791 99.888C416.521 108.368 411.221 113.818 402.031 116.178L400.461 113.308C406.811 110.878 410.241 106.458 410.621 99.898H403.531C399.501 99.898 396.211 98.718 393.751 96.288C390.991 93.638 389.571 90.168 389.571 85.818C389.571 80.438 391.141 76.168 394.351 72.848C397.561 69.528 401.821 67.838 407.041 67.838H417.941V93.268H426.601V99.898H417.791V99.888ZM410.401 72.108H406.591C403.601 72.108 401.291 73.218 399.651 75.428C398.011 77.638 397.191 80.658 397.191 84.488C397.191 90.308 399.511 93.258 404.141 93.258H410.411V72.108H410.401Z" fill="white"/>
<path d="M447.511 99.888C444.521 99.888 442.061 99.148 440.191 97.678C438.251 99.148 435.861 99.888 433.021 99.888H424.131V93.258H431.081C434.741 93.258 436.531 91.338 436.531 87.438V80.288L435.041 70.708L443.931 68.718V87.438C443.931 91.348 445.721 93.258 449.381 93.258H453.111V99.888H447.511ZM440.051 116.178C438.781 116.178 437.661 115.738 436.841 114.928C435.941 114.118 435.501 113.008 435.501 111.688C435.501 110.438 435.951 109.408 436.771 108.588C437.671 107.708 438.791 107.258 440.061 107.258C441.331 107.258 442.381 107.698 443.201 108.508C444.101 109.388 444.541 110.498 444.541 111.748C444.541 112.778 444.091 113.808 443.271 114.768C442.371 115.728 441.331 116.168 440.061 116.168H440.051V116.178Z" fill="white"/>
<path d="M509.271 89.198C509.271 92.438 508.301 95.018 506.361 96.938C504.341 98.928 501.731 99.888 498.441 99.888C494.481 99.888 491.121 98.488 488.361 95.688C486.341 98.488 483.361 99.888 479.321 99.888C475.511 99.888 472.081 98.418 469.161 95.468L467.741 97.088C465.721 98.928 463.041 99.888 459.751 99.888H451.091V93.258H457.961C461.471 93.258 463.261 91.338 463.341 87.438L463.491 73.218L470.811 71.598V90.758C472.681 92.448 474.921 93.338 477.461 93.338C480.971 93.338 482.761 91.418 482.761 87.518V73.218L490.081 71.598V90.608C491.951 92.448 494.041 93.338 496.501 93.338C500.011 93.338 501.801 91.418 501.801 87.518V80.298L500.461 70.718L509.271 68.728V89.218V89.198Z" fill="white"/>
</svg>
