<svg width="1006" height="909" viewBox="0 0 1006 909" fill="none" xmlns="http://www.w3.org/2000/svg">
<path d="M894.718 54.3967C895.627 57.126 896.407 59.9051 897.48 62.5658C898.715 65.6304 901.147 67.1033 904.365 66.0665C907.645 65.0089 908.71 62.212 907.793 59.1247C906.124 53.4852 904.2 47.9163 902.131 42.4097C900.993 39.3889 898.62 37.841 895.273 38.8861C892.188 39.844 890.946 42.6511 891.994 46.2151C892.807 48.9693 893.79 51.6737 894.699 54.403L894.73 54.3926L894.718 54.3967Z" fill="#00C3FE"/>
<path d="M123.212 540.602C124.12 543.331 124.9 546.11 125.973 548.771C127.209 551.835 129.64 553.308 132.858 552.272C136.139 551.214 137.204 548.417 136.287 545.33C134.617 539.69 132.694 534.121 130.624 528.615C129.487 525.594 127.114 524.046 123.766 525.091C120.681 526.049 119.439 528.856 120.487 532.42C121.3 535.174 122.284 537.879 123.193 540.608L123.224 540.598L123.212 540.602Z" fill="#00C3FE"/>
<path d="M948.051 509.907C948.96 512.636 949.74 515.415 950.813 518.076C952.048 521.14 954.48 522.613 957.698 521.577C960.978 520.519 962.043 517.722 961.126 514.635C959.457 508.995 957.533 503.426 955.464 497.92C954.326 494.899 951.953 493.351 948.606 494.396C945.521 495.354 944.279 498.161 945.327 501.725C946.14 504.479 947.123 507.184 948.032 509.913L948.063 509.903L948.051 509.907Z" fill="#00C3FE"/>
<path d="M623.361 521.357C624.27 524.086 625.05 526.865 626.123 529.526C627.358 532.59 629.79 534.063 633.008 533.026C636.288 531.969 637.354 529.172 636.436 526.085C634.767 520.445 632.843 514.876 630.774 509.37C629.636 506.349 627.263 504.801 623.916 505.846C620.831 506.804 619.589 509.611 620.637 513.175C621.45 515.929 622.434 518.634 623.342 521.363L623.374 521.353L623.361 521.357Z" fill="#00C3FE"/>
<path d="M422.492 54.3967C423.401 57.126 424.18 59.9051 425.254 62.5658C426.489 65.6304 428.92 67.1033 432.139 66.0665C435.419 65.0089 436.484 62.212 435.567 59.1247C433.898 53.4852 431.974 47.9163 429.905 42.4097C428.767 39.3889 426.394 37.841 423.047 38.8861C419.962 39.844 418.72 42.6511 419.768 46.2151C420.581 48.9693 421.564 51.6737 422.473 54.403L422.504 54.3926L422.492 54.3967Z" fill="#00C3FE"/>
<path d="M941.255 95.6534C942.865 93.2699 944.594 90.9582 946.05 88.4861C947.727 85.6393 947.413 82.8138 944.63 80.8938C941.793 78.937 938.926 79.7964 937.037 82.4047C933.583 87.165 930.339 92.0835 927.233 97.0794C925.531 99.822 925.75 102.647 928.618 104.664C931.257 106.527 934.24 105.801 936.427 102.799C938.116 100.476 939.661 98.048 941.271 95.6645L941.244 95.6461L941.255 95.6534Z" fill="#FEBD00"/>
<path d="M169.748 581.859C171.359 579.475 173.087 577.163 174.543 574.691C176.22 571.844 175.907 569.019 173.124 567.099C170.286 565.142 167.419 566.001 165.53 568.61C162.076 573.37 158.832 578.289 155.727 583.284C154.024 586.027 154.243 588.852 157.111 590.869C159.75 592.732 162.733 592.006 164.921 589.004C166.609 586.681 168.154 584.253 169.764 581.87L169.737 581.851L169.748 581.859Z" fill="#FEBD00"/>
<path d="M994.588 551.163C996.198 548.78 997.927 546.468 999.383 543.996C1001.06 541.149 1000.75 538.324 997.963 536.404C995.126 534.447 992.259 535.306 990.37 537.915C986.916 542.675 983.672 547.594 980.566 552.589C978.864 555.332 979.083 558.157 981.951 560.174C984.59 562.037 987.573 561.311 989.76 558.309C991.449 555.986 992.994 553.558 994.604 551.175L994.577 551.156L994.588 551.163Z" fill="#FEBD00"/>
<path d="M669.898 562.613C671.508 560.23 673.237 557.918 674.693 555.446C676.37 552.599 676.057 549.774 673.274 547.854C670.436 545.897 667.569 546.756 665.68 549.365C662.226 554.125 658.982 559.043 655.876 564.039C654.174 566.782 654.393 569.607 657.261 571.624C659.9 573.487 662.883 572.761 665.07 569.759C666.759 567.436 668.304 565.008 669.914 562.624L669.887 562.606L669.898 562.613Z" fill="#FEBD00"/>
<path d="M469.029 95.6534C470.64 93.2699 472.368 90.9582 473.824 88.4861C475.501 85.6393 475.188 82.8138 472.405 80.8938C469.567 78.937 466.701 79.7964 464.811 82.4047C461.357 87.165 458.113 92.0835 455.008 97.0794C453.306 99.822 453.524 102.647 456.392 104.664C459.032 106.527 462.014 105.801 464.202 102.799C465.89 100.476 467.435 98.048 469.046 95.6645L469.018 95.6461L469.029 95.6534Z" fill="#FEBD00"/>
<path d="M582.775 25.998C584.969 26.4979 586.996 26.4586 588.614 24.3738C590.133 22.4146 590.699 20.1928 589.179 18.3176C584.96 13.1171 580.589 8.01031 575.987 3.1502C574.305 1.379 571.756 1.29889 569.596 2.97883C567.514 4.59529 566.448 6.89364 567.917 9.1137C571.845 15.0493 576.602 20.3465 581.629 25.3893C581.902 25.6656 582.346 25.7715 582.784 25.9939L582.775 25.998Z" fill="#2EC111"/>
<path d="M311.419 492.958C313.613 493.458 315.64 493.419 317.258 491.334C318.777 489.375 319.343 487.153 317.823 485.278C313.604 480.077 309.233 474.97 304.63 470.11C302.949 468.339 300.4 468.259 298.24 469.939C296.158 471.555 295.092 473.854 296.561 476.074C300.489 482.009 305.246 487.306 310.273 492.349C310.545 492.626 310.989 492.731 311.427 492.954L311.419 492.958Z" fill="#2EC111"/>
<path d="M110.549 25.998C112.743 26.4979 114.77 26.4586 116.388 24.3738C117.907 22.4146 118.472 20.1928 116.953 18.3176C112.733 13.1171 108.363 8.01031 103.76 3.1502C102.079 1.379 99.5295 1.29889 97.3696 2.97883C95.2875 4.59529 94.2216 6.89364 95.6906 9.1137C99.6189 15.0493 104.376 20.3465 109.402 25.3893C109.675 25.6656 110.119 25.7715 110.557 25.9939L110.549 25.998Z" fill="#2EC111"/>
<path d="M533.064 114.065C532.189 116.138 531.874 118.141 533.644 120.098C535.308 121.936 537.397 122.88 539.509 121.711C545.366 118.464 551.157 115.052 556.746 111.368C558.783 110.022 559.307 107.525 558.03 105.105C556.801 102.773 554.724 101.322 552.282 102.382C545.752 105.214 539.706 108.973 533.863 113.043C533.543 113.263 533.362 113.682 533.066 114.074L533.064 114.065Z" fill="#00BFFF"/>
<path d="M261.707 581.025C260.832 583.098 260.517 585.101 262.288 587.058C263.952 588.896 266.041 589.84 268.152 588.671C274.009 585.424 279.8 582.012 285.389 578.328C287.427 576.982 287.95 574.485 286.673 572.065C285.445 569.733 283.368 568.282 280.925 569.341C274.395 572.174 268.349 575.933 262.507 580.003C262.187 580.223 262.005 580.642 261.71 581.034L261.707 581.025Z" fill="#00BFFF"/>
<path d="M60.8372 114.065C59.962 116.138 59.647 118.141 61.4174 120.098C63.0814 121.936 65.1705 122.88 67.2821 121.711C73.1391 118.464 78.9302 115.052 84.519 111.368C86.5564 110.022 87.0802 107.525 85.803 105.105C84.5746 102.773 82.4976 101.322 80.0552 102.382C73.5252 105.214 67.4791 108.973 61.6365 113.043C61.3168 113.263 61.1351 113.682 60.8397 114.074L60.8372 114.065Z" fill="#00BFFF"/>
<path d="M534.132 254.651C533.874 256.887 534.134 258.897 536.384 260.278C538.497 261.574 540.767 261.894 542.465 260.179C547.174 255.417 551.773 250.515 556.102 245.409C557.679 243.544 557.48 241.001 555.574 239.038C553.74 237.145 551.339 236.336 549.293 238.039C543.822 242.592 539.075 247.898 534.611 253.445C534.367 253.747 534.31 254.199 534.136 254.659L534.132 254.651Z" fill="#FB474B"/>
<path d="M262.775 721.611C262.518 723.847 262.778 725.857 265.027 727.238C267.14 728.534 269.411 728.854 271.109 727.139C275.817 722.377 280.417 717.475 284.745 712.369C286.322 710.504 286.124 707.961 284.218 705.998C282.384 704.105 279.983 703.296 277.936 704.999C272.465 709.551 267.719 714.858 263.255 720.405C263.01 720.707 262.953 721.159 262.78 721.619L262.775 721.611Z" fill="#FB474B"/>
<path d="M61.905 254.651C61.6475 256.887 61.9079 258.897 64.157 260.278C66.2703 261.574 68.5405 261.894 70.2386 260.179C74.9474 255.417 79.5465 250.515 83.875 245.409C85.4521 243.544 85.2534 241.001 83.3477 239.038C81.5136 237.145 79.1126 236.336 77.0662 238.039C71.595 242.592 66.8487 247.898 62.3849 253.445C62.14 253.747 62.0832 254.199 61.9099 254.659L61.905 254.651Z" fill="#FB474B"/>
<path d="M775.091 70.0155C774.366 72.7771 775.671 74.577 777.26 76.129C781.179 79.9652 785.135 83.7631 789.189 87.4427C792.117 90.1053 794.938 90.0784 797.111 87.655C799.274 85.2429 799.118 82.1482 796.567 79.6331C792.565 75.6886 788.602 71.6993 784.417 67.953C780.824 64.7398 775.957 66.0763 775.092 70.0091L775.091 70.0155Z" fill="#FFAA00"/>
<path d="M3.5842 556.221C2.86008 558.982 4.16421 560.782 5.75344 562.334C9.67294 566.17 13.6291 569.968 17.6823 573.648C20.6106 576.31 23.4314 576.283 25.6044 573.86C27.7678 571.448 27.6114 568.353 25.0602 565.838C21.059 561.894 17.096 557.904 12.9102 554.158C9.31792 550.945 4.45058 552.281 3.58578 556.214L3.5842 556.221Z" fill="#FFAA00"/>
<path d="M828.424 525.526C827.699 528.287 829.004 530.087 830.593 531.639C834.512 535.475 838.468 539.273 842.522 542.953C845.45 545.615 848.271 545.588 850.444 543.165C852.607 540.753 852.451 537.658 849.9 535.143C845.898 531.199 841.935 527.209 837.75 523.463C834.157 520.25 829.29 521.586 828.425 525.519L828.424 525.526Z" fill="#FFAA00"/>
<path d="M503.735 536.975C503.01 539.737 504.315 541.537 505.904 543.089C509.823 546.925 513.779 550.723 517.833 554.403C520.761 557.065 523.582 557.038 525.755 554.615C527.918 552.203 527.762 549.108 525.211 546.593C521.209 542.649 517.246 538.659 513.061 534.913C509.468 531.7 504.601 533.036 503.736 536.969L503.735 536.975Z" fill="#FFAA00"/>
<path d="M302.864 70.0155C302.14 72.7771 303.444 74.577 305.034 76.129C308.953 79.9652 312.909 83.7631 316.963 87.4427C319.891 90.1053 322.712 90.0784 324.885 87.655C327.048 85.2429 326.892 82.1482 324.341 79.6331C320.339 75.6886 316.376 71.6993 312.19 67.953C308.598 64.7398 303.731 66.0763 302.866 70.0091L302.864 70.0155Z" fill="#FFAA00"/>
<path d="M848.912 197.032C846.085 196.634 844.449 198.138 843.092 199.897C839.738 204.236 836.425 208.607 833.242 213.06C830.937 216.278 831.292 219.077 833.952 220.953C836.599 222.822 839.654 222.307 841.856 219.48C845.309 215.048 848.81 210.648 852.045 206.055C854.819 202.114 852.926 197.435 848.919 197.033L848.912 197.032Z" fill="#4DD300"/>
<path d="M77.4059 683.237C74.5789 682.839 72.9428 684.343 71.586 686.102C68.2313 690.441 64.919 694.812 61.7354 699.265C59.4311 702.483 59.7857 705.282 62.4452 707.158C65.0924 709.027 68.1479 708.512 70.3495 705.685C73.8023 701.253 77.3039 696.853 80.5384 692.26C83.3123 688.319 81.4192 683.64 77.4125 683.238L77.4059 683.237Z" fill="#4DD300"/>
<path d="M902.245 652.542C899.418 652.144 897.782 653.648 896.425 655.407C893.071 659.746 889.758 664.117 886.575 668.57C884.27 671.788 884.625 674.587 887.285 676.463C889.932 678.332 892.987 677.817 895.189 674.99C898.642 670.558 902.143 666.158 905.378 661.565C908.152 657.624 906.259 652.945 902.252 652.543L902.245 652.542Z" fill="#4DD300"/>
<path d="M577.555 663.992C574.728 663.594 573.092 665.098 571.735 666.857C568.381 671.196 565.068 675.567 561.885 680.02C559.581 683.238 559.935 686.037 562.595 687.913C565.242 689.782 568.297 689.267 570.499 686.44C573.952 682.008 577.453 677.608 580.688 673.015C583.462 669.074 581.569 664.395 577.562 663.993L577.555 663.992Z" fill="#4DD300"/>
<path d="M376.686 197.032C373.859 196.634 372.223 198.138 370.866 199.897C367.512 204.236 364.199 208.607 361.016 213.06C358.711 216.278 359.066 219.077 361.725 220.953C364.373 222.822 367.428 222.307 369.63 219.48C373.083 215.048 376.584 210.648 379.819 206.055C382.593 202.114 380.699 197.435 376.693 197.033L376.686 197.032Z" fill="#4DD300"/>
<path d="M933.863 280.871C931.457 282.408 931.193 284.615 931.307 286.833C931.581 292.311 931.909 297.785 932.387 303.238C932.731 307.181 934.82 309.076 938.061 308.771C941.287 308.468 943.273 306.09 943.106 302.511C942.845 296.898 942.643 291.279 942.112 285.687C941.655 280.889 937.173 278.566 933.869 280.868L933.863 280.871Z" fill="#F65D19"/>
<path d="M162.357 767.076C159.951 768.613 159.687 770.82 159.8 773.038C160.075 778.516 160.402 783.99 160.881 789.443C161.224 793.386 163.314 795.281 166.555 794.976C169.781 794.673 171.766 792.295 171.6 788.716C171.339 783.104 171.137 777.484 170.606 771.892C170.149 767.094 165.667 764.771 162.363 767.073L162.357 767.076Z" fill="#F65D19"/>
<path d="M987.196 736.381C984.79 737.918 984.526 740.125 984.64 742.343C984.914 747.821 985.242 753.295 985.72 758.748C986.064 762.691 988.153 764.586 991.394 764.281C994.62 763.978 996.606 761.6 996.439 758.021C996.178 752.409 995.976 746.789 995.445 741.197C994.988 736.399 990.506 734.076 987.202 736.378L987.196 736.381Z" fill="#F65D19"/>
<path d="M662.506 747.831C660.1 749.368 659.836 751.575 659.95 753.793C660.224 759.271 660.552 764.745 661.031 770.198C661.374 774.141 663.463 776.036 666.704 775.731C669.93 775.428 671.916 773.05 671.749 769.471C671.489 763.858 671.286 758.239 670.755 752.647C670.298 747.849 665.817 745.526 662.512 747.827L662.506 747.831Z" fill="#F65D19"/>
<path d="M461.637 280.871C459.231 282.408 458.967 284.615 459.081 286.833C459.355 292.311 459.682 297.785 460.161 303.238C460.504 307.181 462.594 309.076 465.835 308.771C469.061 308.468 471.047 306.09 470.88 302.511C470.619 296.898 470.417 291.279 469.886 285.687C469.429 280.889 464.947 278.566 461.643 280.868L461.637 280.871Z" fill="#F65D19"/>
<path d="M821.025 363.397C820.124 360.689 821.309 358.808 822.794 357.157C826.457 353.075 830.159 349.029 833.966 345.095C836.716 342.248 839.533 342.093 841.858 344.371C844.173 346.638 844.217 349.736 841.834 352.411C838.096 356.606 834.399 360.843 830.465 364.852C827.088 368.291 822.144 367.272 821.027 363.404L821.025 363.397Z" fill="#53D100"/>
<path d="M49.5184 849.603C48.6172 846.894 49.8022 845.013 51.2877 843.362C54.9508 839.28 58.653 835.234 62.4597 831.3C65.2096 828.453 68.0263 828.298 70.3515 830.576C72.6664 832.843 72.7105 835.941 70.3274 838.616C66.5897 842.811 62.8931 847.048 58.9583 851.058C55.5814 854.496 50.6378 853.478 49.5204 849.609L49.5184 849.603Z" fill="#53D100"/>
<path d="M874.358 818.908C873.457 816.199 874.642 814.318 876.127 812.667C879.79 808.585 883.492 804.539 887.299 800.605C890.049 797.758 892.866 797.603 895.191 799.881C897.506 802.148 897.55 805.246 895.167 807.921C891.429 812.116 887.732 816.353 883.798 820.363C880.421 823.801 875.477 822.783 874.36 818.914L874.358 818.908Z" fill="#53D100"/>
<path d="M549.669 830.357C548.768 827.649 549.953 825.768 551.438 824.117C555.101 820.035 558.803 815.989 562.61 812.055C565.36 809.208 568.177 809.053 570.502 811.331C572.817 813.598 572.861 816.696 570.478 819.371C566.74 823.566 563.043 827.803 559.109 831.812C555.732 835.251 550.788 834.232 549.671 830.364L549.669 830.357Z" fill="#53D100"/>
<path d="M348.799 363.397C347.897 360.689 349.082 358.808 350.568 357.157C354.231 353.075 357.933 349.029 361.74 345.095C364.49 342.248 367.307 342.093 369.632 344.371C371.947 346.638 371.991 349.736 369.608 352.411C365.87 356.606 362.173 360.843 358.239 364.852C354.862 368.291 349.918 367.272 348.801 363.404L348.799 363.397Z" fill="#53D100"/>
<path d="M711.453 438.354C709.141 436.679 709.007 434.46 709.251 432.252C709.846 426.8 710.494 421.354 711.293 415.939C711.867 412.023 714.064 410.254 717.281 410.748C720.484 411.24 722.327 413.731 721.95 417.294C721.361 422.881 720.828 428.479 719.97 434.031C719.232 438.794 714.622 440.849 711.458 438.358L711.453 438.354Z" fill="#F65D19"/>
<path d="M764.786 893.864C762.474 892.189 762.34 889.97 762.584 887.762C763.179 882.31 763.828 876.864 764.626 871.449C765.2 867.533 767.397 865.764 770.614 866.258C773.817 866.75 775.66 869.241 775.283 872.804C774.694 878.391 774.161 883.989 773.303 889.541C772.565 894.304 767.955 896.359 764.791 893.868L764.786 893.864Z" fill="#F65D19"/>
<path d="M440.096 905.314C437.785 903.639 437.651 901.42 437.894 899.212C438.49 893.76 439.138 888.314 439.936 882.899C440.51 878.983 442.708 877.214 445.925 877.708C449.128 878.2 450.97 880.691 450.594 884.254C450.004 889.841 449.472 895.439 448.614 900.991C447.876 905.754 443.266 907.809 440.102 905.318L440.096 905.314Z" fill="#F65D19"/>
<path d="M239.227 438.354C236.915 436.679 236.782 434.46 237.025 432.252C237.621 426.8 238.269 421.354 239.067 415.939C239.641 412.023 241.839 410.254 245.056 410.748C248.258 411.24 250.101 413.731 249.725 417.294C249.135 422.881 248.603 428.479 247.744 434.031C247.007 438.794 242.396 440.849 239.233 438.358L239.227 438.354Z" fill="#F65D19"/>
<path d="M577.383 392.707C580.216 392.36 581.825 393.894 583.15 395.677C586.426 400.075 589.659 404.505 592.762 409.015C595.008 412.274 594.603 415.066 591.91 416.894C589.229 418.714 586.183 418.144 584.033 415.279C580.661 410.785 577.239 406.323 574.088 401.672C571.386 397.682 573.363 393.037 577.376 392.708L577.383 392.707Z" fill="#059BBE"/>
<path d="M306.027 859.667C308.86 859.32 310.469 860.854 311.794 862.637C315.07 867.035 318.303 871.465 321.406 875.975C323.652 879.234 323.247 882.026 320.554 883.854C317.873 885.674 314.828 885.104 312.677 882.239C309.305 877.745 305.883 873.283 302.732 868.632C300.03 864.642 302.007 859.997 306.02 859.668L306.027 859.667Z" fill="#059BBE"/>
<path d="M105.157 392.707C107.99 392.36 109.599 393.894 110.924 395.677C114.2 400.075 117.433 404.505 120.536 409.015C122.781 412.274 122.376 415.066 119.684 416.894C117.003 418.714 113.957 418.144 111.807 415.279C108.435 410.785 105.013 406.323 101.862 401.672C99.1596 397.682 101.137 393.037 105.15 392.708L105.157 392.707Z" fill="#059BBE"/>
<path d="M647.115 311.855C644.288 311.46 643.129 309.563 642.308 307.499C640.277 302.404 638.296 297.291 636.46 292.133C635.131 288.405 636.242 285.813 639.315 284.74C642.374 283.672 645.17 285.008 646.509 288.331C648.608 293.543 650.764 298.736 652.61 304.042C654.192 308.595 651.084 312.572 647.122 311.856L647.115 311.855Z" fill="#F7B400"/>
<path d="M375.759 778.815C372.932 778.42 371.773 776.523 370.952 774.459C368.921 769.364 366.94 764.251 365.104 759.093C363.775 755.365 364.886 752.773 367.959 751.7C371.018 750.632 373.814 751.968 375.153 755.291C377.252 760.503 379.408 765.696 381.254 771.002C382.836 775.555 379.728 779.532 375.766 778.816L375.759 778.815Z" fill="#F7B400"/>
<path d="M174.889 311.855C172.062 311.46 170.903 309.563 170.082 307.499C168.051 302.404 166.069 297.291 164.234 292.133C162.905 288.405 164.016 285.813 167.089 284.74C170.148 283.672 172.944 285.008 174.283 288.331C176.382 293.543 178.538 298.736 180.384 304.042C181.966 308.595 178.858 312.572 174.896 311.856L174.889 311.855Z" fill="#F7B400"/>
<path d="M726.32 45.5283C726.902 44.9456 727.868 44.1716 728.606 43.2154C731.958 38.8938 735.315 34.5695 738.531 30.1481C740.811 27.0094 740.43 23.5486 737.645 21.8716C734.517 19.9903 731.897 20.9795 729.796 23.7638C726.337 28.3529 722.824 32.9003 719.444 37.5414C717.791 39.8142 717.974 42.1868 719.85 44.2994C721.502 46.1563 723.616 46.3176 726.326 45.5257L726.32 45.5283Z" fill="#F4595D"/>
<path d="M779.653 501.038C780.235 500.456 781.201 499.682 781.939 498.725C785.291 494.404 788.648 490.08 791.864 485.658C794.144 482.519 793.763 479.059 790.978 477.382C787.85 475.5 785.23 476.49 783.129 479.274C779.67 483.863 776.157 488.41 772.777 493.051C771.124 495.324 771.307 497.697 773.183 499.809C774.835 501.666 776.949 501.828 779.659 501.036L779.653 501.038Z" fill="#F4595D"/>
<path d="M454.964 512.488C455.546 511.906 456.512 511.132 457.251 510.175C460.602 505.854 463.959 501.529 467.175 497.108C469.455 493.969 469.074 490.509 466.289 488.832C463.161 486.95 460.541 487.94 458.44 490.724C454.981 495.313 451.468 499.86 448.088 504.501C446.435 506.774 446.619 509.147 448.494 511.259C450.146 513.116 452.26 513.278 454.97 512.486L454.964 512.488Z" fill="#F4595D"/>
<path d="M254.094 45.5283C254.676 44.9456 255.642 44.1716 256.38 43.2154C259.732 38.8938 263.089 34.5695 266.305 30.1481C268.585 27.0094 268.204 23.5486 265.419 21.8716C262.291 19.9903 259.671 20.9795 257.57 23.7638C254.111 28.3529 250.598 32.9003 247.218 37.5414C245.565 39.8142 245.748 42.1868 247.624 44.2994C249.276 46.1563 251.39 46.3176 254.1 45.5257L254.094 45.5283Z" fill="#F4595D"/>
<path d="M647.647 125.967C646.467 126.77 645.795 127.969 645.192 129.199C642.904 133.869 640.582 138.523 638.403 143.247C636.634 147.079 637.389 149.917 640.323 151.352C643.404 152.863 646.211 151.844 648.062 148.227C650.614 143.233 652.989 138.153 655.386 133.082C656.56 130.587 656.181 128.137 654.125 126.368C652.228 124.737 649.909 124.475 647.656 125.969L647.647 125.967Z" fill="#56D000"/>
<path d="M376.291 592.927C375.111 593.73 374.439 594.929 373.836 596.159C371.548 600.829 369.226 605.483 367.047 610.207C365.278 614.039 366.033 616.877 368.967 618.312C372.048 619.823 374.855 618.804 376.706 615.187C379.258 610.193 381.633 605.113 384.03 600.042C385.204 597.547 384.825 595.097 382.769 593.327C380.872 591.697 378.553 591.435 376.3 592.929L376.291 592.927Z" fill="#56D000"/>
<path d="M175.421 125.967C174.241 126.77 173.568 127.969 172.966 129.199C170.678 133.869 168.356 138.523 166.177 143.247C164.408 147.079 165.163 149.917 168.097 151.352C171.177 152.863 173.985 151.844 175.836 148.227C178.388 143.233 180.763 138.153 183.159 133.082C184.334 130.587 183.955 128.137 181.899 126.368C180.002 124.737 177.683 124.475 175.43 125.969L175.421 125.967Z" fill="#56D000"/>
<path d="M697.576 231.965C698.999 232.071 700.271 231.552 701.509 230.964C706.206 228.733 710.921 226.537 715.567 224.197C719.337 222.299 720.513 219.608 719.111 216.659C717.64 213.559 714.809 212.608 711.109 214.286C706.002 216.606 700.981 219.103 695.949 221.579C693.477 222.801 692.248 224.954 692.755 227.619C693.225 230.076 694.876 231.724 697.569 231.958L697.576 231.965Z" fill="#E552FF"/>
<path d="M750.909 687.475C752.332 687.581 753.604 687.062 754.842 686.474C759.539 684.243 764.254 682.047 768.9 679.707C772.67 677.809 773.846 675.118 772.444 672.169C770.973 669.069 768.142 668.118 764.442 669.797C759.335 672.116 754.314 674.613 749.282 677.089C746.81 678.311 745.581 680.464 746.088 683.129C746.558 685.586 748.209 687.234 750.902 687.468L750.909 687.475Z" fill="#E552FF"/>
<path d="M426.219 698.925C427.642 699.031 428.915 698.512 430.152 697.924C434.85 695.693 439.565 693.497 444.211 691.157C447.98 689.259 449.157 686.568 447.754 683.619C446.283 680.519 443.452 679.568 439.752 681.246C434.646 683.566 429.625 686.063 424.592 688.539C422.12 689.761 420.891 691.914 421.398 694.579C421.868 697.036 423.52 698.684 426.213 698.918L426.219 698.925Z" fill="#E552FF"/>
<path d="M225.35 231.965C226.773 232.071 228.045 231.552 229.283 230.964C233.981 228.733 238.695 226.537 243.342 224.197C247.111 222.299 248.288 219.608 246.885 216.659C245.414 213.559 242.583 212.608 238.883 214.286C233.776 216.606 228.756 219.103 223.723 221.579C221.251 222.801 220.022 224.954 220.529 227.619C220.999 230.076 222.65 231.724 225.344 231.958L225.35 231.965Z" fill="#E552FF"/>
</svg>
